<?xml version="1.0" encoding="utf-8"?>
<!-- Generator: Adobe Illustrator 24.0.0, SVG Export Plug-In . SVG Version: 6.00 Build 0)  -->
<svg version="1.1" id="Layer_1" xmlns="http://www.w3.org/2000/svg" xmlns:xlink="http://www.w3.org/1999/xlink" x="0px" y="0px"
	 viewBox="0 0 128.2 61.9" style="enable-background:new 0 0 128.2 61.9;" xml:space="preserve">
<style type="text/css">
	.st0{fill:none;}
	.st1{fill:#0E90CF;}
	.st2{fill:#635B48;}
</style>
<title>ACM PSUT SC Logo</title>
<g>
	<path class="st0" d="M108.2,41.9c0,0.3,0.3,0.6,0.6,0.7c0,0,0.1,0,0.1,0c0.4,0,0.8-0.3,1-0.6c0-0.1,0-0.1,0-0.2l0.1-0.6
		C109.1,41.1,108.2,41.2,108.2,41.9z"/>
	<path class="st0" d="M77.1,22.8c0-2.1-1.6-3-4-3c-0.7,0-1.5,0-2.2,0.2l0,5.9c0.6,0.1,1.3,0.2,1.9,0.2C75.5,26,77.1,24.8,77.1,22.8z
		"/>
	<path class="st0" d="M113.9,39.7c0,0-0.1,0-0.1,0c-0.6,0-1.1,0.4-1.2,0.9c0,0.1,0,0.2,0,0.3l0,0.5c0,0.1,0,0.2,0,0.3
		c0.2,0.5,0.6,0.9,1.2,0.9c0.7,0,1.3-0.6,1.3-1.3c0-0.1,0-0.1,0-0.2C115.1,40.4,114.6,39.8,113.9,39.7z"/>
	<path class="st0" d="M81.7,39.7c-0.7,0-1.3,0.6-1.3,1.3c0,0,0,0.1,0,0.1c-0.1,0.7,0.4,1.3,1.1,1.4c0,0,0.1,0,0.1,0
		c0.5,0,1-0.4,1.2-0.9c0-0.1,0-0.2,0-0.3v-0.5c0-0.1,0-0.2,0-0.3C82.7,40,82.2,39.7,81.7,39.7z"/>
	<path class="st0" d="M86.5,39.6c-0.1,0-0.1,0-0.2,0c-0.6,0-1.1,0.5-1.2,1.1h2.3C87.4,40.2,87,39.7,86.5,39.6z"/>
	<path class="st0" d="M121.2,39.6c-0.1,0-0.1,0-0.2,0c-0.6,0-1.1,0.5-1.2,1.1h2.2C122.1,40.2,121.7,39.7,121.2,39.6z"/>
	<path class="st1" d="M0,31l31,30.9L62,31L31,0L0,31z M50,31c0,10.5-8.5,19-19,19s-19-8.5-19-19s8.5-19,19-19S50,20.5,50,31z"/>
	<path class="st1" d="M13.8,31c0,9.4,7.7,17.1,17.1,17.1S48.1,40.4,48.1,31S40.4,13.8,31,13.8S13.8,21.5,13.8,31z M21.3,34.8
		L21.1,34h-0.1c-0.6,0.6-1.5,1-2.4,0.9c-1.3,0.1-2.5-0.9-2.6-2.2c0,0,0-0.1,0-0.1c0-2,1.8-3,4.8-3v-0.1c0-0.3-0.2-1-1.5-1
		c-0.8,0-1.6,0.2-2.3,0.6l-0.5-1.6c1-0.5,2.1-0.8,3.2-0.7c2.6,0,3.6,1.5,3.6,3.4v2.6c0,0.6,0,1.3,0.1,1.9L21.3,34.8z M35.3,27
		l0.1,1.1h0.1c0.5-0.8,1.5-1.3,2.5-1.3c1,0,1.9,0.5,2.3,1.4c0.3-0.4,0.7-0.7,1.1-1c0.5-0.3,1-0.4,1.6-0.4c1.5,0,2.8,1,2.8,3.5v4.4
		h-2.4v-4.1c0-1.2-0.4-1.8-1.3-1.8c-0.5,0-1,0.4-1.2,0.9c-0.1,0.2-0.1,0.4-0.1,0.6v4.4h-2.5v-4.1c0-1.1-0.4-1.7-1.2-1.7
		c-0.6,0-1,0.4-1.2,0.9c-0.1,0.2-0.1,0.4-0.1,0.6v4.4h-2.5v-5.2c0-1,0-1.8-0.1-2.5H35.3z M29.6,33c0.1,0,0.2,0,0.3,0
		c0.5,0,1.1-0.1,1.6-0.3l0.3,1.8c-0.8,0.3-1.6,0.4-2.4,0.4c-2.7,0-4.4-1.6-4.4-4c0-2.2,1.6-4.1,4.7-4.1c0.7,0,1.4,0.1,2.1,0.3
		L31.3,29c-0.5-0.2-1-0.3-1.5-0.3c-1.1-0.1-2.1,0.7-2.2,1.8c0,0.1,0,0.2,0,0.3C27.5,32,28.4,32.9,29.6,33z"/>
	<path class="st1" d="M18.6,32.3c0,0.6,0.4,0.9,1,0.9c0.6,0,1.2-0.4,1.4-1c0-0.1,0-0.3,0-0.4l0-0.6C19.6,31.1,18.6,31.5,18.6,32.3z"
		/>
	<path class="st2" d="M70.9,28.2c0.6,0.1,1.2,0.2,1.9,0.2c2.1,0.1,4.2-0.5,5.8-1.9c1-1,1.6-2.4,1.5-3.9c0-1.5-0.6-2.9-1.7-3.8
		c-1.5-1.1-3.4-1.6-5.3-1.5c-1.7,0-3.5,0.1-5.2,0.3l0,17h3V28.2z M70.9,19.9c0.7-0.1,1.5-0.2,2.2-0.2c2.4,0,4,0.9,4,3
		c0,2.1-1.6,3.3-4.2,3.3c-0.6,0-1.3,0-1.9-0.2L70.9,19.9z"/>
	<path class="st2" d="M89.3,24.8c-2.5-0.8-3.6-1.5-3.6-2.8c0-1,0.9-2.2,3.1-2.2c1.3,0,2.6,0.3,3.8,0.9l0.8-2.4c-1.4-0.7-3-1-4.5-0.9
		c-3.8,0-6.3,2.1-6.3,4.9c0,2.6,1.9,4,5.1,5c2.5,0.8,3.3,1.4,3.3,2.9c0,1.5-1.2,2.5-3.4,2.5c-1.6,0-3.2-0.4-4.6-1.2l-0.7,2.5
		c1.6,0.8,3.3,1.2,5.1,1.2c4.8,0,6.8-2.5,6.8-5.2S92.5,25.8,89.3,24.8z"/>
	<path class="st2" d="M108.8,27.2c0,3.7-1.6,5.5-4.3,5.5c-2.5,0-4.2-1.8-4.2-5.5v-9.6h-3.1v9.5c0,5.8,2.9,8,7.1,8
		c4.5,0,7.5-2.4,7.5-8v-9.5h-3V27.2z"/>
	<polygon class="st2" points="113.8,17.6 113.8,20.1 119.5,20.1 119.5,34.8 122.5,34.8 122.5,20.1 128.2,20.1 128.2,17.6 	"/>
	<path class="st2" d="M70.1,40.1c-0.8-0.3-1.1-0.6-1.1-1s0.3-0.8,1.1-0.8c0.4,0,0.8,0.1,1.1,0.3l0.2-0.6c-0.4-0.2-0.8-0.3-1.3-0.3
		c-1.1,0-1.8,0.7-1.8,1.4s0.5,1.2,1.5,1.5c0.8,0.2,1.1,0.5,1.1,1s-0.4,0.9-1.2,0.9c-0.5,0-0.9-0.1-1.4-0.4l-0.2,0.6
		c0.5,0.3,1,0.4,1.5,0.4c1.4,0,1.9-0.7,1.9-1.5S71.1,40.4,70.1,40.1z"/>
	<path class="st2" d="M73.4,38.1l-0.7,0.2v0.9H72v0.5h0.6v2c0,0.4,0.1,0.7,0.3,1c0.2,0.2,0.5,0.3,0.8,0.3c0.2,0,0.4,0,0.7-0.1v-0.5
		c-0.1,0-0.3,0.1-0.5,0.1c-0.4,0-0.5-0.3-0.5-0.8v-2h1.1v-0.5h-1.1V38.1z"/>
	<path class="st2" d="M78.1,41.5c0,0.1,0,0.2-0.1,0.4c-0.2,0.4-0.6,0.7-1,0.7c-0.7,0-1-0.5-1-1.3v-2h-0.7v2.1c0,1.4,0.9,1.7,1.4,1.7
		c0.6,0,1.1-0.3,1.4-0.8V43h0.6c0-0.3,0-0.6,0-1l0-2.8h-0.7V41.5z"/>
	<path class="st2" d="M82.8,39.8c-0.3-0.4-0.8-0.6-1.3-0.6c0,0-0.1,0-0.1,0c-1,0.1-1.8,1-1.8,2c0,0,0,0.1,0,0.1c0,1,0.8,1.8,1.8,1.8
		c0.6,0,1.2-0.3,1.4-0.8V43h0.6c0-0.3,0-0.7,0-1v-4.6h-0.7V39.8z M82.8,40.8v0.5c0,0.1,0,0.2,0,0.3c-0.1,0.5-0.6,0.9-1.2,0.9
		c0,0-0.1,0-0.1,0c-0.7-0.1-1.2-0.7-1.1-1.4c0,0,0-0.1,0-0.1c0-0.7,0.6-1.3,1.3-1.3c0.5,0,1,0.3,1.1,0.8
		C82.8,40.6,82.8,40.7,82.8,40.8z"/>
	<path class="st2" d="M86.3,39.2c0,0-0.1,0-0.1,0c-1,0.1-1.9,0.9-1.8,2c0,0.1,0,0.2,0,0.2c0.1,1,1,1.7,2,1.7c0.5,0,0.9-0.1,1.4-0.3
		l-0.1-0.5c-0.4,0.2-0.8,0.2-1.2,0.2c0,0-0.1,0-0.1,0c-0.7,0-1.3-0.6-1.3-1.3H88c0-0.1,0-0.2,0-0.3c0,0,0-0.1,0-0.1
		C88,39.9,87.3,39.2,86.3,39.2z M85.1,40.8c0-0.6,0.6-1.1,1.2-1.1c0.1,0,0.1,0,0.2,0c0.5,0.1,0.9,0.6,0.9,1.1H85.1z"/>
	<path class="st2" d="M91,39.1c-0.6,0-1.1,0.3-1.4,0.8v-0.7H89c0,0.3,0,0.6,0,1V43h0.7v-2.2c0-0.1,0-0.2,0.1-0.3
		c0.2-0.4,0.5-0.7,1-0.7c0.7,0,1,0.5,1,1.2V43h0.7v-2.2C92.5,39.4,91.5,39.1,91,39.1z"/>
	<path class="st2" d="M94.4,38.1l-0.7,0.2v0.9h-0.6v0.5h0.6v2c0,0.4,0.1,0.7,0.3,1c0.2,0.2,0.5,0.3,0.8,0.3c0.2,0,0.4,0,0.7-0.1
		v-0.5c-0.1,0-0.3,0.1-0.5,0.1c-0.4,0-0.5-0.3-0.5-0.8v-2h1.1v-0.5h-1.1V38.1z"/>
	<path class="st2" d="M100.9,38.2c0.4,0,0.8,0.1,1.2,0.3l0.2-0.5c-0.5-0.2-0.9-0.3-1.4-0.3c-0.1,0-0.2,0-0.2,0
		c-1.5,0-2.8,1.2-2.8,2.8c0,0.1,0,0.2,0,0.3c0.1,1.4,1.4,2.5,2.8,2.3c0.5,0,1.1-0.1,1.6-0.3l-0.2-0.5c-0.4,0.2-0.8,0.3-1.3,0.3
		c-0.1,0-0.3,0-0.4,0c-1.1-0.1-1.9-1-1.9-2.1c0-0.1,0-0.2,0-0.3C98.7,39,99.7,38.1,100.9,38.2z"/>
	<path class="st2" d="M105.2,39.1c-0.3,0-0.5,0.1-0.8,0.2c-0.2,0.1-0.4,0.3-0.5,0.5v-2.4h-0.7l0.1,5.6h0.7v-2.2c0-0.1,0-0.2,0-0.3
		c0.2-0.4,0.6-0.7,1-0.7c0.7,0,1,0.5,1,1.2V43h0.7v-2.2C106.6,39.4,105.7,39.1,105.2,39.1z"/>
	<path class="st2" d="M110.7,40.7c0-0.1,0-0.2,0-0.3c-0.1-0.8-0.8-1.3-1.5-1.3c-0.5,0-0.9,0.1-1.3,0.4l0.2,0.5
		c0.3-0.2,0.7-0.3,1.1-0.3c0.1,0,0.1,0,0.2,0c0.5,0,0.8,0.4,0.8,0.9v0.1c-1.7,0-2.5,0.5-2.5,1.4c0,0,0,0.1,0,0.1
		c0.1,0.6,0.6,1,1.2,1c0.5,0,1-0.2,1.3-0.6l0.1,0.5l0.6,0c0-0.3-0.1-0.6-0.1-0.9V40.7z M109.9,41.7c0,0.1,0,0.1,0,0.2
		c-0.2,0.4-0.6,0.7-1,0.6c0,0-0.1,0-0.1,0c-0.3,0-0.6-0.3-0.6-0.7c0-0.7,0.9-0.8,1.8-0.8L109.9,41.7z"/>
	<path class="st2" d="M114,39.1c-0.6,0-1.2,0.3-1.5,0.8v-0.7h-0.6c0,0.4,0,0.8,0,1.2l0,4h0.7v-2.1c0.3,0.4,0.8,0.7,1.3,0.6
		c0,0,0.1,0,0.1,0c1-0.1,1.8-1,1.7-2c0,0,0,0,0-0.1C115.8,39.9,115,39.1,114,39.1z M113.7,42.5c-0.5,0-1-0.3-1.2-0.9
		c0-0.1,0-0.2,0-0.3l0-0.5c0-0.1,0-0.2,0-0.3c0.1-0.5,0.6-0.9,1.2-0.9c0,0,0.1,0,0.1,0c0.7,0.1,1.2,0.7,1.2,1.4c0,0.1,0,0.1,0,0.2
		C115,42,114.4,42.6,113.7,42.5z"/>
	<path class="st2" d="M117.5,38.1l-0.7,0.2v0.9h-0.6v0.5h0.6v2c0,0.4,0.1,0.7,0.3,1c0.2,0.2,0.5,0.3,0.8,0.3c0.2,0,0.4,0,0.7-0.1
		v-0.5c-0.1,0-0.3,0.1-0.4,0.1c-0.4,0-0.6-0.3-0.6-0.8v-2h1.1v-0.5h-1.1V38.1z"/>
	<path class="st2" d="M121,39.2c0,0-0.1,0-0.1,0c-1,0.1-1.9,0.9-1.8,2c0,0.1,0,0.2,0,0.2c0.1,1,1,1.7,2,1.7c0.5,0,0.9-0.1,1.4-0.3
		l-0.1-0.5c-0.4,0.2-0.8,0.2-1.2,0.2c-0.1,0-0.1,0-0.2,0c-0.7,0-1.3-0.6-1.3-1.3l3,0c0-0.1,0-0.2,0-0.3c0-0.1,0-0.1,0-0.2
		C122.7,39.9,121.9,39.2,121,39.2z M119.8,40.8c0-0.6,0.6-1.1,1.2-1.1c0.1,0,0.1,0,0.2,0c0.5,0.1,0.9,0.6,0.9,1.1H119.8z"/>
	<path class="st2" d="M124.2,40v-0.8h-0.6c0,0.4,0,0.8,0,1.2l0,2.5h0.7v-2c0-0.1,0-0.2,0-0.3c0-0.5,0.5-0.9,1-0.9c0.1,0,0.2,0,0.3,0
		v-0.6c-0.1,0-0.1,0-0.2,0C124.8,39.2,124.4,39.5,124.2,40z"/>
</g>
</svg>
